<?xml version="1.0" encoding="UTF-8"?>
<svg width="41px" height="40px" viewBox="0 0 41 40" version="1.1" xmlns="http://www.w3.org/2000/svg" xmlns:xlink="http://www.w3.org/1999/xlink">
    <!-- Generator: Sketch 52.6 (67491) - http://www.bohemiancoding.com/sketch -->
    <title>Github</title>
    <desc>Created with Sketch.</desc>
    <g id="Page-1" stroke="none" stroke-width="1" fill="none" fill-rule="evenodd">
        <g id="Contact" transform="translate(-452.000000, -636.000000)" fill="#E23E57">
            <path d="M472.290335,636 C461.085565,636 452,645.180504 452,656.507782 C452,665.566529 457.813544,673.252621 465.878188,675.964606 C466.892768,676.15301 467.26309,675.519871 467.26309,674.976449 C467.26309,674.48942 467.245335,673.200073 467.235189,671.489062 C461.590319,672.728424 460.399455,668.73991 460.399455,668.73991 C459.477456,666.371409 458.147087,665.740834 458.147087,665.740834 C456.304356,664.468149 458.286592,664.493782 458.286592,664.493782 C460.322094,664.63861 461.393744,666.607234 461.393744,666.607234 C463.20477,669.740883 466.143247,668.836034 467.299869,668.310555 C467.483761,666.985322 468.008807,666.081754 468.588385,665.569092 C464.082381,665.051303 459.34556,663.29287 459.34556,655.435036 C459.34556,653.195982 460.135665,651.365777 461.434327,649.931604 C461.22507,649.412533 460.528814,647.32856 461.63217,644.505071 C461.63217,644.505071 463.336665,643.953959 467.212361,646.606987 C468.831885,646.151999 470.566817,645.925146 472.292871,645.916175 C474.016389,645.925146 475.752589,646.151999 477.373381,646.606987 C481.246541,643.953959 482.947231,644.505071 482.947231,644.505071 C484.054392,647.32856 483.358136,649.412533 483.148879,649.931604 C484.450078,651.365777 485.235109,653.195982 485.235109,655.435036 C485.235109,663.312095 480.490679,665.046176 475.970724,665.553712 C476.698685,666.18685 477.348017,667.437747 477.348017,669.35126 C477.348017,672.092722 477.322652,674.30358 477.322652,674.976449 C477.322652,675.524998 477.687901,676.163263 478.7177,675.962043 C486.774735,673.244931 492.583206,665.563965 492.583206,656.507782 C492.583206,645.180504 483.497641,636 472.290335,636" id="Github"></path>
        </g>
    </g>
</svg>