<?xml version="1.0" encoding="UTF-8"?>
<svg width="402px" height="359px" viewBox="0 0 402 359" version="1.1" xmlns="http://www.w3.org/2000/svg" xmlns:xlink="http://www.w3.org/1999/xlink">
    <!-- Generator: Sketch 52.6 (67491) - http://www.bohemiancoding.com/sketch -->
    <title>Hex</title>
    <desc>Created with Sketch.</desc>
    <g id="Page-1" stroke="none" stroke-width="1" fill="none" fill-rule="evenodd">
        <g id="Home" transform="translate(-735.000000, -366.000000)" stroke-width="5">
            <g id="Hex" transform="translate(735.000000, 285.000000)">
                <g id="Group" transform="translate(25.000000, 31.000000)" stroke="#311D3F">
                    <path d="M188.5,248.999798 L98.3302434,405.17 L278.669757,405.17 L188.5,248.999798 Z" id="Triangle"></path>
                    <path d="M282.5,86.9997984 L192.330243,243.17 L372.669757,243.17 L282.5,86.9997984 Z" id="Triangle"></path>
                    <path d="M94.5,86.9997984 L4.33024345,243.17 L184.669757,243.17 L94.5,86.9997984 Z" id="Triangle"></path>
                    <path d="M306.121189,208.921699 L215.951432,365.091901 L396.290945,365.091901 L306.121189,208.921699 Z" id="Triangle" transform="translate(306.121189, 285.756901) rotate(60.000000) translate(-306.121189, -285.756901) "></path>
                    <path d="M212.121189,45.921699 L121.951432,202.091901 L302.290945,202.091901 L212.121189,45.921699 Z" id="Triangle" transform="translate(212.121189, 122.756901) rotate(60.000000) translate(-212.121189, -122.756901) "></path>
                    <path d="M118.121189,207.921699 L27.9514324,364.091901 L208.290945,364.091901 L118.121189,207.921699 Z" id="Triangle" transform="translate(118.121189, 284.756901) rotate(60.000000) translate(-118.121189, -284.756901) "></path>
                </g>
                <g id="Group" transform="translate(16.000000, 20.000000)" stroke="#88304E">
                    <path d="M188.5,248.999798 L98.3302434,405.17 L278.669757,405.17 L188.5,248.999798 Z" id="Triangle"></path>
                    <path d="M282.5,86.9997984 L192.330243,243.17 L372.669757,243.17 L282.5,86.9997984 Z" id="Triangle"></path>
                    <path d="M94.5,86.9997984 L4.33024345,243.17 L184.669757,243.17 L94.5,86.9997984 Z" id="Triangle"></path>
                    <path d="M306.121189,208.921699 L215.951432,365.091901 L396.290945,365.091901 L306.121189,208.921699 Z" id="Triangle" transform="translate(306.121189, 285.756901) rotate(60.000000) translate(-306.121189, -285.756901) "></path>
                    <path d="M212.121189,45.921699 L121.951432,202.091901 L302.290945,202.091901 L212.121189,45.921699 Z" id="Triangle" transform="translate(212.121189, 122.756901) rotate(60.000000) translate(-212.121189, -122.756901) "></path>
                    <path d="M118.121189,207.921699 L27.9514324,364.091901 L208.290945,364.091901 L118.121189,207.921699 Z" id="Triangle" transform="translate(118.121189, 284.756901) rotate(60.000000) translate(-118.121189, -284.756901) "></path>
                </g>
                <g id="Group" stroke="#E23E57">
                    <path d="M188.5,248.999798 L98.3302434,405.17 L278.669757,405.17 L188.5,248.999798 Z" id="Triangle"></path>
                    <path d="M282.5,86.9997984 L192.330243,243.17 L372.669757,243.17 L282.5,86.9997984 Z" id="Triangle"></path>
                    <path d="M94.5,86.9997984 L4.33024345,243.17 L184.669757,243.17 L94.5,86.9997984 Z" id="Triangle"></path>
                    <path d="M306.121189,208.921699 L215.951432,365.091901 L396.290945,365.091901 L306.121189,208.921699 Z" id="Triangle" transform="translate(306.121189, 285.756901) rotate(60.000000) translate(-306.121189, -285.756901) "></path>
                    <path d="M212.121189,45.921699 L121.951432,202.091901 L302.290945,202.091901 L212.121189,45.921699 Z" id="Triangle" transform="translate(212.121189, 122.756901) rotate(60.000000) translate(-212.121189, -122.756901) "></path>
                    <path d="M118.121189,207.921699 L27.9514324,364.091901 L208.290945,364.091901 L118.121189,207.921699 Z" id="Triangle" transform="translate(118.121189, 284.756901) rotate(60.000000) translate(-118.121189, -284.756901) "></path>
                </g>
            </g>
        </g>
    </g>
</svg>