<?xml version="1.0" encoding="UTF-8"?>
<svg width="40px" height="40px" viewBox="0 0 40 40" version="1.1" xmlns="http://www.w3.org/2000/svg" xmlns:xlink="http://www.w3.org/1999/xlink">
    <!-- Generator: Sketch 52.6 (67491) - http://www.bohemiancoding.com/sketch -->
    <title>LinkedIn</title>
    <desc>Created with Sketch.</desc>
    <g id="Page-1" stroke="none" stroke-width="1" fill="none" fill-rule="evenodd">
        <g id="Contact" transform="translate(-372.000000, -636.000000)" fill="#E23E57">
            <path d="M406.08625,670.08375 L400.15375,670.08375 L400.15375,660.80125 C400.15375,658.5875 400.11625,655.74 397.07125,655.74 C393.985,655.74 393.51375,658.1525 393.51375,660.6425 L393.51375,670.08375 L387.5875,670.08375 L387.5875,650.995 L393.275,650.995 L393.275,653.605 L393.35625,653.605 C394.1475,652.10375 396.0825,650.52125 398.96875,650.52125 C404.97625,650.52125 406.08625,654.47375 406.08625,659.615 L406.08625,670.08375 Z M380.89875,648.3875 C378.9925,648.3875 377.45625,646.84625 377.45625,644.94625 C377.45625,643.0475 378.9925,641.50625 380.89875,641.50625 C382.79625,641.50625 384.3375,643.0475 384.3375,644.94625 C384.3375,646.84625 382.79625,648.3875 380.89875,648.3875 L380.89875,648.3875 Z M383.86625,670.08375 L377.9275,670.08375 L377.9275,650.995 L383.86625,650.995 L383.86625,670.08375 Z M410.33375,636 L373.6675,636 C372.74625,636 372,636.74625 372,637.66625 L372,674.3325 C372,675.25375 372.74625,676 373.6675,676 L410.33375,676 C411.25375,676 412,675.25375 412,674.3325 L412,637.66625 C412,636.74625 411.25375,636 410.33375,636 L410.33375,636 Z" id="LinkedIn"></path>
        </g>
    </g>
</svg>