<?xml version="1.0" encoding="UTF-8"?>
<svg width="101px" height="70px" viewBox="0 0 101 70" version="1.1" xmlns="http://www.w3.org/2000/svg" xmlns:xlink="http://www.w3.org/1999/xlink">
    <!-- Generator: Sketch 52.6 (67491) - http://www.bohemiancoding.com/sketch -->
    <title>AW extra tilt on side to match A</title>
    <desc>Created with Sketch.</desc>
    <g id="Symbols" stroke="none" stroke-width="1" fill="none" fill-rule="evenodd">
        <g id="HEADER" transform="translate(-150.000000, -25.000000)" fill="#E23E57">
            <g id="AW-extra-tilt-on-side-to-match-A">
                <path d="M201.467022,61.1404248 L203.113926,57.821056 L187.047807,25 L190.30212,25 L204.921878,54.8290813 L219.903225,25 L222.434358,25 L206.277842,57.7303901 L221.168792,87.5594714 L248.559265,25 L251,25 L220.897599,94.1780822 L204.46989,60.9943626 L202.920894,64.1233098 L217.794521,94.6392694 L214.626552,94.6392694 L201.773653,68.7058956 L200.65227,68.7058956 L188.04218,94.1780822 L177.091263,68.7058956 L165.477788,68.7058956 L152.805915,94.6392694 L150,94.6392694 L170.293054,52.8930423 L158.30137,25 L161.646081,25 L172.082361,49.2121354 L183.852004,25 L201.467022,61.1404248 Z M197.713415,68.7058956 L180.484856,68.7058956 L188.494168,87.2874737 L197.713415,68.7058956 Z M183.575901,30.9954338 L166.60274,66.0456621 L200.730594,66.0456621 L183.575901,30.9954338 Z"></path>
            </g>
        </g>
    </g>
</svg>